<mxfile host="app.diagrams.net" modified="2023-02-20T11:14:32.895Z" agent="5.0 (Windows NT 10.0; Win64; x64) AppleWebKit/537.36 (KHTML, like Gecko) Chrome/110.0.0.0 Safari/537.36" etag="kmPrqfh5JIiWNYqOehM3" version="20.8.20" type="github" pages="2">
  <diagram id="oaUFSGxLzFAOfT1aSlZE" name="ClassDiagram">
    <mxGraphModel dx="709" dy="648" grid="1" gridSize="10" guides="1" tooltips="1" connect="1" arrows="1" fold="1" page="1" pageScale="1" pageWidth="1169" pageHeight="827" math="0" shadow="0">
      <root>
        <mxCell id="0" />
        <mxCell id="1" parent="0" />
        <mxCell id="UGIgIkd3A4uO1lvJn5f--62" style="edgeStyle=orthogonalEdgeStyle;rounded=0;orthogonalLoop=1;jettySize=auto;html=1;endArrow=diamondThin;endFill=0;endSize=16;" parent="1" source="UGIgIkd3A4uO1lvJn5f--22" target="UGIgIkd3A4uO1lvJn5f--26" edge="1">
          <mxGeometry relative="1" as="geometry" />
        </mxCell>
        <mxCell id="UGIgIkd3A4uO1lvJn5f--22" value="Generator/Pump" style="swimlane;fontStyle=0;childLayout=stackLayout;horizontal=1;startSize=26;fillColor=none;horizontalStack=0;resizeParent=1;resizeParentMax=0;resizeLast=0;collapsible=1;marginBottom=0;" parent="1" vertex="1">
          <mxGeometry x="280" y="520" width="140" height="104" as="geometry" />
        </mxCell>
        <mxCell id="UGIgIkd3A4uO1lvJn5f--23" value="+ field: type" style="text;strokeColor=none;fillColor=none;align=left;verticalAlign=top;spacingLeft=4;spacingRight=4;overflow=hidden;rotatable=0;points=[[0,0.5],[1,0.5]];portConstraint=eastwest;" parent="UGIgIkd3A4uO1lvJn5f--22" vertex="1">
          <mxGeometry y="26" width="140" height="26" as="geometry" />
        </mxCell>
        <mxCell id="UGIgIkd3A4uO1lvJn5f--24" value="+ field: type" style="text;strokeColor=none;fillColor=none;align=left;verticalAlign=top;spacingLeft=4;spacingRight=4;overflow=hidden;rotatable=0;points=[[0,0.5],[1,0.5]];portConstraint=eastwest;" parent="UGIgIkd3A4uO1lvJn5f--22" vertex="1">
          <mxGeometry y="52" width="140" height="26" as="geometry" />
        </mxCell>
        <mxCell id="UGIgIkd3A4uO1lvJn5f--25" value="+ field: type" style="text;strokeColor=none;fillColor=none;align=left;verticalAlign=top;spacingLeft=4;spacingRight=4;overflow=hidden;rotatable=0;points=[[0,0.5],[1,0.5]];portConstraint=eastwest;" parent="UGIgIkd3A4uO1lvJn5f--22" vertex="1">
          <mxGeometry y="78" width="140" height="26" as="geometry" />
        </mxCell>
        <mxCell id="UGIgIkd3A4uO1lvJn5f--61" style="edgeStyle=orthogonalEdgeStyle;rounded=0;orthogonalLoop=1;jettySize=auto;html=1;endArrow=diamondThin;endFill=0;endSize=16;" parent="1" source="UGIgIkd3A4uO1lvJn5f--26" target="UGIgIkd3A4uO1lvJn5f--42" edge="1">
          <mxGeometry relative="1" as="geometry" />
        </mxCell>
        <mxCell id="UGIgIkd3A4uO1lvJn5f--26" value="Reservoir" style="swimlane;fontStyle=0;childLayout=stackLayout;horizontal=1;startSize=26;fillColor=none;horizontalStack=0;resizeParent=1;resizeParentMax=0;resizeLast=0;collapsible=1;marginBottom=0;" parent="1" vertex="1">
          <mxGeometry x="80" y="520" width="140" height="104" as="geometry" />
        </mxCell>
        <mxCell id="UGIgIkd3A4uO1lvJn5f--27" value="+ field: type" style="text;strokeColor=none;fillColor=none;align=left;verticalAlign=top;spacingLeft=4;spacingRight=4;overflow=hidden;rotatable=0;points=[[0,0.5],[1,0.5]];portConstraint=eastwest;" parent="UGIgIkd3A4uO1lvJn5f--26" vertex="1">
          <mxGeometry y="26" width="140" height="26" as="geometry" />
        </mxCell>
        <mxCell id="UGIgIkd3A4uO1lvJn5f--28" value="+ field: type" style="text;strokeColor=none;fillColor=none;align=left;verticalAlign=top;spacingLeft=4;spacingRight=4;overflow=hidden;rotatable=0;points=[[0,0.5],[1,0.5]];portConstraint=eastwest;" parent="UGIgIkd3A4uO1lvJn5f--26" vertex="1">
          <mxGeometry y="52" width="140" height="26" as="geometry" />
        </mxCell>
        <mxCell id="UGIgIkd3A4uO1lvJn5f--29" value="+ field: type" style="text;strokeColor=none;fillColor=none;align=left;verticalAlign=top;spacingLeft=4;spacingRight=4;overflow=hidden;rotatable=0;points=[[0,0.5],[1,0.5]];portConstraint=eastwest;" parent="UGIgIkd3A4uO1lvJn5f--26" vertex="1">
          <mxGeometry y="78" width="140" height="26" as="geometry" />
        </mxCell>
        <mxCell id="UGIgIkd3A4uO1lvJn5f--108" style="edgeStyle=orthogonalEdgeStyle;rounded=0;orthogonalLoop=1;jettySize=auto;html=1;endArrow=diamondThin;endFill=0;endSize=16;" parent="1" source="UGIgIkd3A4uO1lvJn5f--30" target="UGIgIkd3A4uO1lvJn5f--50" edge="1">
          <mxGeometry relative="1" as="geometry" />
        </mxCell>
        <mxCell id="UGIgIkd3A4uO1lvJn5f--30" value="User" style="swimlane;fontStyle=0;childLayout=stackLayout;horizontal=1;startSize=26;fillColor=none;horizontalStack=0;resizeParent=1;resizeParentMax=0;resizeLast=0;collapsible=1;marginBottom=0;" parent="1" vertex="1">
          <mxGeometry x="480" y="940" width="140" height="104" as="geometry" />
        </mxCell>
        <mxCell id="UGIgIkd3A4uO1lvJn5f--31" value="+ field: type" style="text;strokeColor=none;fillColor=none;align=left;verticalAlign=top;spacingLeft=4;spacingRight=4;overflow=hidden;rotatable=0;points=[[0,0.5],[1,0.5]];portConstraint=eastwest;" parent="UGIgIkd3A4uO1lvJn5f--30" vertex="1">
          <mxGeometry y="26" width="140" height="26" as="geometry" />
        </mxCell>
        <mxCell id="UGIgIkd3A4uO1lvJn5f--32" value="+ field: type" style="text;strokeColor=none;fillColor=none;align=left;verticalAlign=top;spacingLeft=4;spacingRight=4;overflow=hidden;rotatable=0;points=[[0,0.5],[1,0.5]];portConstraint=eastwest;" parent="UGIgIkd3A4uO1lvJn5f--30" vertex="1">
          <mxGeometry y="52" width="140" height="26" as="geometry" />
        </mxCell>
        <mxCell id="UGIgIkd3A4uO1lvJn5f--33" value="+ field: type" style="text;strokeColor=none;fillColor=none;align=left;verticalAlign=top;spacingLeft=4;spacingRight=4;overflow=hidden;rotatable=0;points=[[0,0.5],[1,0.5]];portConstraint=eastwest;" parent="UGIgIkd3A4uO1lvJn5f--30" vertex="1">
          <mxGeometry y="78" width="140" height="26" as="geometry" />
        </mxCell>
        <mxCell id="UGIgIkd3A4uO1lvJn5f--54" style="edgeStyle=orthogonalEdgeStyle;rounded=0;orthogonalLoop=1;jettySize=auto;html=1;endArrow=diamondThin;endFill=0;endSize=16;" parent="1" source="UGIgIkd3A4uO1lvJn5f--34" target="UGIgIkd3A4uO1lvJn5f--38" edge="1">
          <mxGeometry relative="1" as="geometry" />
        </mxCell>
        <mxCell id="UGIgIkd3A4uO1lvJn5f--34" value="Solarpanel" style="swimlane;fontStyle=0;childLayout=stackLayout;horizontal=1;startSize=26;fillColor=none;horizontalStack=0;resizeParent=1;resizeParentMax=0;resizeLast=0;collapsible=1;marginBottom=0;" parent="1" vertex="1">
          <mxGeometry x="480" y="760" width="140" height="104" as="geometry" />
        </mxCell>
        <mxCell id="UGIgIkd3A4uO1lvJn5f--35" value="+ field: type" style="text;strokeColor=none;fillColor=none;align=left;verticalAlign=top;spacingLeft=4;spacingRight=4;overflow=hidden;rotatable=0;points=[[0,0.5],[1,0.5]];portConstraint=eastwest;" parent="UGIgIkd3A4uO1lvJn5f--34" vertex="1">
          <mxGeometry y="26" width="140" height="26" as="geometry" />
        </mxCell>
        <mxCell id="UGIgIkd3A4uO1lvJn5f--36" value="+ field: type" style="text;strokeColor=none;fillColor=none;align=left;verticalAlign=top;spacingLeft=4;spacingRight=4;overflow=hidden;rotatable=0;points=[[0,0.5],[1,0.5]];portConstraint=eastwest;" parent="UGIgIkd3A4uO1lvJn5f--34" vertex="1">
          <mxGeometry y="52" width="140" height="26" as="geometry" />
        </mxCell>
        <mxCell id="UGIgIkd3A4uO1lvJn5f--37" value="+ field: type" style="text;strokeColor=none;fillColor=none;align=left;verticalAlign=top;spacingLeft=4;spacingRight=4;overflow=hidden;rotatable=0;points=[[0,0.5],[1,0.5]];portConstraint=eastwest;" parent="UGIgIkd3A4uO1lvJn5f--34" vertex="1">
          <mxGeometry y="78" width="140" height="26" as="geometry" />
        </mxCell>
        <mxCell id="UGIgIkd3A4uO1lvJn5f--65" style="edgeStyle=orthogonalEdgeStyle;rounded=0;orthogonalLoop=1;jettySize=auto;html=1;endArrow=block;endFill=0;endSize=16;" parent="1" source="UGIgIkd3A4uO1lvJn5f--38" target="UGIgIkd3A4uO1lvJn5f--50" edge="1">
          <mxGeometry relative="1" as="geometry" />
        </mxCell>
        <mxCell id="UGIgIkd3A4uO1lvJn5f--38" value="SolarPowerPlant" style="swimlane;fontStyle=0;childLayout=stackLayout;horizontal=1;startSize=26;fillColor=none;horizontalStack=0;resizeParent=1;resizeParentMax=0;resizeLast=0;collapsible=1;marginBottom=0;" parent="1" vertex="1">
          <mxGeometry x="280" y="760" width="140" height="104" as="geometry" />
        </mxCell>
        <mxCell id="UGIgIkd3A4uO1lvJn5f--39" value="+ field: type" style="text;strokeColor=none;fillColor=none;align=left;verticalAlign=top;spacingLeft=4;spacingRight=4;overflow=hidden;rotatable=0;points=[[0,0.5],[1,0.5]];portConstraint=eastwest;" parent="UGIgIkd3A4uO1lvJn5f--38" vertex="1">
          <mxGeometry y="26" width="140" height="26" as="geometry" />
        </mxCell>
        <mxCell id="UGIgIkd3A4uO1lvJn5f--40" value="+ field: type" style="text;strokeColor=none;fillColor=none;align=left;verticalAlign=top;spacingLeft=4;spacingRight=4;overflow=hidden;rotatable=0;points=[[0,0.5],[1,0.5]];portConstraint=eastwest;" parent="UGIgIkd3A4uO1lvJn5f--38" vertex="1">
          <mxGeometry y="52" width="140" height="26" as="geometry" />
        </mxCell>
        <mxCell id="UGIgIkd3A4uO1lvJn5f--41" value="+ field: type" style="text;strokeColor=none;fillColor=none;align=left;verticalAlign=top;spacingLeft=4;spacingRight=4;overflow=hidden;rotatable=0;points=[[0,0.5],[1,0.5]];portConstraint=eastwest;" parent="UGIgIkd3A4uO1lvJn5f--38" vertex="1">
          <mxGeometry y="78" width="140" height="26" as="geometry" />
        </mxCell>
        <mxCell id="UGIgIkd3A4uO1lvJn5f--63" style="edgeStyle=orthogonalEdgeStyle;rounded=0;orthogonalLoop=1;jettySize=auto;html=1;endArrow=block;endFill=0;endSize=16;" parent="1" source="UGIgIkd3A4uO1lvJn5f--42" target="UGIgIkd3A4uO1lvJn5f--50" edge="1">
          <mxGeometry relative="1" as="geometry" />
        </mxCell>
        <mxCell id="UGIgIkd3A4uO1lvJn5f--42" value="WaterPowerPlant" style="swimlane;fontStyle=0;childLayout=stackLayout;horizontal=1;startSize=26;fillColor=none;horizontalStack=0;resizeParent=1;resizeParentMax=0;resizeLast=0;collapsible=1;marginBottom=0;" parent="1" vertex="1">
          <mxGeometry x="80" y="760" width="140" height="104" as="geometry" />
        </mxCell>
        <mxCell id="UGIgIkd3A4uO1lvJn5f--43" value="+ field: type" style="text;strokeColor=none;fillColor=none;align=left;verticalAlign=top;spacingLeft=4;spacingRight=4;overflow=hidden;rotatable=0;points=[[0,0.5],[1,0.5]];portConstraint=eastwest;" parent="UGIgIkd3A4uO1lvJn5f--42" vertex="1">
          <mxGeometry y="26" width="140" height="26" as="geometry" />
        </mxCell>
        <mxCell id="UGIgIkd3A4uO1lvJn5f--44" value="+ field: type" style="text;strokeColor=none;fillColor=none;align=left;verticalAlign=top;spacingLeft=4;spacingRight=4;overflow=hidden;rotatable=0;points=[[0,0.5],[1,0.5]];portConstraint=eastwest;" parent="UGIgIkd3A4uO1lvJn5f--42" vertex="1">
          <mxGeometry y="52" width="140" height="26" as="geometry" />
        </mxCell>
        <mxCell id="UGIgIkd3A4uO1lvJn5f--45" value="+ field: type" style="text;strokeColor=none;fillColor=none;align=left;verticalAlign=top;spacingLeft=4;spacingRight=4;overflow=hidden;rotatable=0;points=[[0,0.5],[1,0.5]];portConstraint=eastwest;" parent="UGIgIkd3A4uO1lvJn5f--42" vertex="1">
          <mxGeometry y="78" width="140" height="26" as="geometry" />
        </mxCell>
        <mxCell id="UGIgIkd3A4uO1lvJn5f--46" value="Ekste" style="swimlane;fontStyle=0;childLayout=stackLayout;horizontal=1;startSize=26;fillColor=none;horizontalStack=0;resizeParent=1;resizeParentMax=0;resizeLast=0;collapsible=1;marginBottom=0;" parent="1" vertex="1">
          <mxGeometry x="750" y="50" width="140" height="104" as="geometry" />
        </mxCell>
        <mxCell id="UGIgIkd3A4uO1lvJn5f--47" value="+ field: type" style="text;strokeColor=none;fillColor=none;align=left;verticalAlign=top;spacingLeft=4;spacingRight=4;overflow=hidden;rotatable=0;points=[[0,0.5],[1,0.5]];portConstraint=eastwest;" parent="UGIgIkd3A4uO1lvJn5f--46" vertex="1">
          <mxGeometry y="26" width="140" height="26" as="geometry" />
        </mxCell>
        <mxCell id="UGIgIkd3A4uO1lvJn5f--48" value="+ field: type" style="text;strokeColor=none;fillColor=none;align=left;verticalAlign=top;spacingLeft=4;spacingRight=4;overflow=hidden;rotatable=0;points=[[0,0.5],[1,0.5]];portConstraint=eastwest;" parent="UGIgIkd3A4uO1lvJn5f--46" vertex="1">
          <mxGeometry y="52" width="140" height="26" as="geometry" />
        </mxCell>
        <mxCell id="UGIgIkd3A4uO1lvJn5f--49" value="+ field: type" style="text;strokeColor=none;fillColor=none;align=left;verticalAlign=top;spacingLeft=4;spacingRight=4;overflow=hidden;rotatable=0;points=[[0,0.5],[1,0.5]];portConstraint=eastwest;" parent="UGIgIkd3A4uO1lvJn5f--46" vertex="1">
          <mxGeometry y="78" width="140" height="26" as="geometry" />
        </mxCell>
        <mxCell id="UGIgIkd3A4uO1lvJn5f--50" value="PowerPlant" style="swimlane;fontStyle=0;childLayout=stackLayout;horizontal=1;startSize=26;fillColor=none;horizontalStack=0;resizeParent=1;resizeParentMax=0;resizeLast=0;collapsible=1;marginBottom=0;" parent="1" vertex="1">
          <mxGeometry x="200" y="940" width="140" height="104" as="geometry" />
        </mxCell>
        <mxCell id="UGIgIkd3A4uO1lvJn5f--51" value="+ field: type" style="text;strokeColor=none;fillColor=none;align=left;verticalAlign=top;spacingLeft=4;spacingRight=4;overflow=hidden;rotatable=0;points=[[0,0.5],[1,0.5]];portConstraint=eastwest;" parent="UGIgIkd3A4uO1lvJn5f--50" vertex="1">
          <mxGeometry y="26" width="140" height="26" as="geometry" />
        </mxCell>
        <mxCell id="UGIgIkd3A4uO1lvJn5f--52" value="+ field: type" style="text;strokeColor=none;fillColor=none;align=left;verticalAlign=top;spacingLeft=4;spacingRight=4;overflow=hidden;rotatable=0;points=[[0,0.5],[1,0.5]];portConstraint=eastwest;" parent="UGIgIkd3A4uO1lvJn5f--50" vertex="1">
          <mxGeometry y="52" width="140" height="26" as="geometry" />
        </mxCell>
        <mxCell id="UGIgIkd3A4uO1lvJn5f--53" value="+ field: type" style="text;strokeColor=none;fillColor=none;align=left;verticalAlign=top;spacingLeft=4;spacingRight=4;overflow=hidden;rotatable=0;points=[[0,0.5],[1,0.5]];portConstraint=eastwest;" parent="UGIgIkd3A4uO1lvJn5f--50" vertex="1">
          <mxGeometry y="78" width="140" height="26" as="geometry" />
        </mxCell>
        <mxCell id="UGIgIkd3A4uO1lvJn5f--72" style="edgeStyle=orthogonalEdgeStyle;rounded=0;orthogonalLoop=1;jettySize=auto;html=1;endArrow=diamondThin;endFill=0;endSize=16;" parent="1" source="UGIgIkd3A4uO1lvJn5f--73" target="UGIgIkd3A4uO1lvJn5f--50" edge="1">
          <mxGeometry relative="1" as="geometry">
            <mxPoint x="480" y="1224" as="targetPoint" />
          </mxGeometry>
        </mxCell>
        <mxCell id="UGIgIkd3A4uO1lvJn5f--73" value="&quot;Hendelse&quot;" style="swimlane;fontStyle=0;childLayout=stackLayout;horizontal=1;startSize=26;fillColor=none;horizontalStack=0;resizeParent=1;resizeParentMax=0;resizeLast=0;collapsible=1;marginBottom=0;" parent="1" vertex="1">
          <mxGeometry x="200" y="1180" width="140" height="104" as="geometry" />
        </mxCell>
        <mxCell id="UGIgIkd3A4uO1lvJn5f--74" value="+ field: type" style="text;strokeColor=none;fillColor=none;align=left;verticalAlign=top;spacingLeft=4;spacingRight=4;overflow=hidden;rotatable=0;points=[[0,0.5],[1,0.5]];portConstraint=eastwest;" parent="UGIgIkd3A4uO1lvJn5f--73" vertex="1">
          <mxGeometry y="26" width="140" height="26" as="geometry" />
        </mxCell>
        <mxCell id="UGIgIkd3A4uO1lvJn5f--75" value="+ field: type" style="text;strokeColor=none;fillColor=none;align=left;verticalAlign=top;spacingLeft=4;spacingRight=4;overflow=hidden;rotatable=0;points=[[0,0.5],[1,0.5]];portConstraint=eastwest;" parent="UGIgIkd3A4uO1lvJn5f--73" vertex="1">
          <mxGeometry y="52" width="140" height="26" as="geometry" />
        </mxCell>
        <mxCell id="UGIgIkd3A4uO1lvJn5f--76" value="+ field: type" style="text;strokeColor=none;fillColor=none;align=left;verticalAlign=top;spacingLeft=4;spacingRight=4;overflow=hidden;rotatable=0;points=[[0,0.5],[1,0.5]];portConstraint=eastwest;" parent="UGIgIkd3A4uO1lvJn5f--73" vertex="1">
          <mxGeometry y="78" width="140" height="26" as="geometry" />
        </mxCell>
        <mxCell id="UGIgIkd3A4uO1lvJn5f--81" style="edgeStyle=orthogonalEdgeStyle;rounded=0;orthogonalLoop=1;jettySize=auto;html=1;endArrow=block;endFill=0;endSize=16;" parent="1" source="UGIgIkd3A4uO1lvJn5f--82" target="UGIgIkd3A4uO1lvJn5f--73" edge="1">
          <mxGeometry relative="1" as="geometry" />
        </mxCell>
        <mxCell id="UGIgIkd3A4uO1lvJn5f--82" value="Action" style="swimlane;fontStyle=0;childLayout=stackLayout;horizontal=1;startSize=26;fillColor=none;horizontalStack=0;resizeParent=1;resizeParentMax=0;resizeLast=0;collapsible=1;marginBottom=0;" parent="1" vertex="1">
          <mxGeometry x="200" y="1400" width="140" height="104" as="geometry" />
        </mxCell>
        <mxCell id="UGIgIkd3A4uO1lvJn5f--83" value="+ field: type" style="text;strokeColor=none;fillColor=none;align=left;verticalAlign=top;spacingLeft=4;spacingRight=4;overflow=hidden;rotatable=0;points=[[0,0.5],[1,0.5]];portConstraint=eastwest;" parent="UGIgIkd3A4uO1lvJn5f--82" vertex="1">
          <mxGeometry y="26" width="140" height="26" as="geometry" />
        </mxCell>
        <mxCell id="UGIgIkd3A4uO1lvJn5f--84" value="+ field: type" style="text;strokeColor=none;fillColor=none;align=left;verticalAlign=top;spacingLeft=4;spacingRight=4;overflow=hidden;rotatable=0;points=[[0,0.5],[1,0.5]];portConstraint=eastwest;" parent="UGIgIkd3A4uO1lvJn5f--82" vertex="1">
          <mxGeometry y="52" width="140" height="26" as="geometry" />
        </mxCell>
        <mxCell id="UGIgIkd3A4uO1lvJn5f--85" value="+ field: type" style="text;strokeColor=none;fillColor=none;align=left;verticalAlign=top;spacingLeft=4;spacingRight=4;overflow=hidden;rotatable=0;points=[[0,0.5],[1,0.5]];portConstraint=eastwest;" parent="UGIgIkd3A4uO1lvJn5f--82" vertex="1">
          <mxGeometry y="78" width="140" height="26" as="geometry" />
        </mxCell>
        <mxCell id="UGIgIkd3A4uO1lvJn5f--86" style="edgeStyle=orthogonalEdgeStyle;rounded=0;orthogonalLoop=1;jettySize=auto;html=1;endArrow=block;endFill=0;endSize=16;" parent="1" source="UGIgIkd3A4uO1lvJn5f--87" target="UGIgIkd3A4uO1lvJn5f--73" edge="1">
          <mxGeometry relative="1" as="geometry">
            <Array as="points">
              <mxPoint x="470" y="1340" />
              <mxPoint x="270" y="1340" />
            </Array>
          </mxGeometry>
        </mxCell>
        <mxCell id="UGIgIkd3A4uO1lvJn5f--87" value="Event" style="swimlane;fontStyle=0;childLayout=stackLayout;horizontal=1;startSize=26;fillColor=none;horizontalStack=0;resizeParent=1;resizeParentMax=0;resizeLast=0;collapsible=1;marginBottom=0;" parent="1" vertex="1">
          <mxGeometry x="400" y="1400" width="140" height="104" as="geometry" />
        </mxCell>
        <mxCell id="UGIgIkd3A4uO1lvJn5f--88" value="+ field: type" style="text;strokeColor=none;fillColor=none;align=left;verticalAlign=top;spacingLeft=4;spacingRight=4;overflow=hidden;rotatable=0;points=[[0,0.5],[1,0.5]];portConstraint=eastwest;" parent="UGIgIkd3A4uO1lvJn5f--87" vertex="1">
          <mxGeometry y="26" width="140" height="26" as="geometry" />
        </mxCell>
        <mxCell id="UGIgIkd3A4uO1lvJn5f--89" value="+ field: type" style="text;strokeColor=none;fillColor=none;align=left;verticalAlign=top;spacingLeft=4;spacingRight=4;overflow=hidden;rotatable=0;points=[[0,0.5],[1,0.5]];portConstraint=eastwest;" parent="UGIgIkd3A4uO1lvJn5f--87" vertex="1">
          <mxGeometry y="52" width="140" height="26" as="geometry" />
        </mxCell>
        <mxCell id="UGIgIkd3A4uO1lvJn5f--90" value="+ field: type" style="text;strokeColor=none;fillColor=none;align=left;verticalAlign=top;spacingLeft=4;spacingRight=4;overflow=hidden;rotatable=0;points=[[0,0.5],[1,0.5]];portConstraint=eastwest;" parent="UGIgIkd3A4uO1lvJn5f--87" vertex="1">
          <mxGeometry y="78" width="140" height="26" as="geometry" />
        </mxCell>
        <mxCell id="UGIgIkd3A4uO1lvJn5f--91" style="edgeStyle=orthogonalEdgeStyle;rounded=0;orthogonalLoop=1;jettySize=auto;html=1;endArrow=block;endFill=0;endSize=16;" parent="1" source="UGIgIkd3A4uO1lvJn5f--92" target="UGIgIkd3A4uO1lvJn5f--73" edge="1">
          <mxGeometry relative="1" as="geometry">
            <Array as="points">
              <mxPoint x="670" y="1340" />
              <mxPoint x="270" y="1340" />
            </Array>
          </mxGeometry>
        </mxCell>
        <mxCell id="UGIgIkd3A4uO1lvJn5f--92" value="State" style="swimlane;fontStyle=0;childLayout=stackLayout;horizontal=1;startSize=26;fillColor=none;horizontalStack=0;resizeParent=1;resizeParentMax=0;resizeLast=0;collapsible=1;marginBottom=0;" parent="1" vertex="1">
          <mxGeometry x="600" y="1400" width="140" height="104" as="geometry" />
        </mxCell>
        <mxCell id="UGIgIkd3A4uO1lvJn5f--93" value="+ field: type" style="text;strokeColor=none;fillColor=none;align=left;verticalAlign=top;spacingLeft=4;spacingRight=4;overflow=hidden;rotatable=0;points=[[0,0.5],[1,0.5]];portConstraint=eastwest;" parent="UGIgIkd3A4uO1lvJn5f--92" vertex="1">
          <mxGeometry y="26" width="140" height="26" as="geometry" />
        </mxCell>
        <mxCell id="UGIgIkd3A4uO1lvJn5f--94" value="+ field: type" style="text;strokeColor=none;fillColor=none;align=left;verticalAlign=top;spacingLeft=4;spacingRight=4;overflow=hidden;rotatable=0;points=[[0,0.5],[1,0.5]];portConstraint=eastwest;" parent="UGIgIkd3A4uO1lvJn5f--92" vertex="1">
          <mxGeometry y="52" width="140" height="26" as="geometry" />
        </mxCell>
        <mxCell id="UGIgIkd3A4uO1lvJn5f--95" value="+ field: type" style="text;strokeColor=none;fillColor=none;align=left;verticalAlign=top;spacingLeft=4;spacingRight=4;overflow=hidden;rotatable=0;points=[[0,0.5],[1,0.5]];portConstraint=eastwest;" parent="UGIgIkd3A4uO1lvJn5f--92" vertex="1">
          <mxGeometry y="78" width="140" height="26" as="geometry" />
        </mxCell>
        <mxCell id="UGIgIkd3A4uO1lvJn5f--99" value="Værdata" style="swimlane;fontStyle=0;childLayout=stackLayout;horizontal=1;startSize=26;fillColor=none;horizontalStack=0;resizeParent=1;resizeParentMax=0;resizeLast=0;collapsible=1;marginBottom=0;" parent="1" vertex="1">
          <mxGeometry x="840" y="1400" width="140" height="104" as="geometry" />
        </mxCell>
        <mxCell id="UGIgIkd3A4uO1lvJn5f--100" value="+ field: type" style="text;strokeColor=none;fillColor=none;align=left;verticalAlign=top;spacingLeft=4;spacingRight=4;overflow=hidden;rotatable=0;points=[[0,0.5],[1,0.5]];portConstraint=eastwest;" parent="UGIgIkd3A4uO1lvJn5f--99" vertex="1">
          <mxGeometry y="26" width="140" height="26" as="geometry" />
        </mxCell>
        <mxCell id="UGIgIkd3A4uO1lvJn5f--101" value="+ field: type" style="text;strokeColor=none;fillColor=none;align=left;verticalAlign=top;spacingLeft=4;spacingRight=4;overflow=hidden;rotatable=0;points=[[0,0.5],[1,0.5]];portConstraint=eastwest;" parent="UGIgIkd3A4uO1lvJn5f--99" vertex="1">
          <mxGeometry y="52" width="140" height="26" as="geometry" />
        </mxCell>
        <mxCell id="UGIgIkd3A4uO1lvJn5f--102" value="+ field: type" style="text;strokeColor=none;fillColor=none;align=left;verticalAlign=top;spacingLeft=4;spacingRight=4;overflow=hidden;rotatable=0;points=[[0,0.5],[1,0.5]];portConstraint=eastwest;" parent="UGIgIkd3A4uO1lvJn5f--99" vertex="1">
          <mxGeometry y="78" width="140" height="26" as="geometry" />
        </mxCell>
        <mxCell id="UGIgIkd3A4uO1lvJn5f--103" value="Strømpris" style="swimlane;fontStyle=0;childLayout=stackLayout;horizontal=1;startSize=26;fillColor=none;horizontalStack=0;resizeParent=1;resizeParentMax=0;resizeLast=0;collapsible=1;marginBottom=0;" parent="1" vertex="1">
          <mxGeometry x="840" y="1550" width="140" height="104" as="geometry" />
        </mxCell>
        <mxCell id="UGIgIkd3A4uO1lvJn5f--104" value="+ field: type" style="text;strokeColor=none;fillColor=none;align=left;verticalAlign=top;spacingLeft=4;spacingRight=4;overflow=hidden;rotatable=0;points=[[0,0.5],[1,0.5]];portConstraint=eastwest;" parent="UGIgIkd3A4uO1lvJn5f--103" vertex="1">
          <mxGeometry y="26" width="140" height="26" as="geometry" />
        </mxCell>
        <mxCell id="UGIgIkd3A4uO1lvJn5f--105" value="+ field: type" style="text;strokeColor=none;fillColor=none;align=left;verticalAlign=top;spacingLeft=4;spacingRight=4;overflow=hidden;rotatable=0;points=[[0,0.5],[1,0.5]];portConstraint=eastwest;" parent="UGIgIkd3A4uO1lvJn5f--103" vertex="1">
          <mxGeometry y="52" width="140" height="26" as="geometry" />
        </mxCell>
        <mxCell id="UGIgIkd3A4uO1lvJn5f--106" value="+ field: type" style="text;strokeColor=none;fillColor=none;align=left;verticalAlign=top;spacingLeft=4;spacingRight=4;overflow=hidden;rotatable=0;points=[[0,0.5],[1,0.5]];portConstraint=eastwest;" parent="UGIgIkd3A4uO1lvJn5f--103" vertex="1">
          <mxGeometry y="78" width="140" height="26" as="geometry" />
        </mxCell>
      </root>
    </mxGraphModel>
  </diagram>
  <diagram id="G64gJZYeK26e0XdJXpfl" name="UseCaseContextDiagram">
    <mxGraphModel dx="828" dy="648" grid="1" gridSize="10" guides="1" tooltips="1" connect="1" arrows="1" fold="1" page="1" pageScale="1" pageWidth="1169" pageHeight="827" math="0" shadow="0">
      <root>
        <mxCell id="0" />
        <mxCell id="1" parent="0" />
        <mxCell id="Qhc68EfF8Lrv2Dlz5Eg7-2" value="System" style="swimlane;whiteSpace=wrap;html=1;" vertex="1" parent="1">
          <mxGeometry x="210" y="100" width="440" height="730" as="geometry" />
        </mxCell>
        <mxCell id="Qhc68EfF8Lrv2Dlz5Eg7-8" value="Håndtere turbiner" style="ellipse;whiteSpace=wrap;html=1;" vertex="1" parent="Qhc68EfF8Lrv2Dlz5Eg7-2">
          <mxGeometry x="70" y="140" width="120" height="60" as="geometry" />
        </mxCell>
        <mxCell id="Qhc68EfF8Lrv2Dlz5Eg7-19" style="edgeStyle=none;rounded=0;orthogonalLoop=1;jettySize=auto;html=1;endArrow=none;endFill=0;" edge="1" parent="Qhc68EfF8Lrv2Dlz5Eg7-2" source="Qhc68EfF8Lrv2Dlz5Eg7-9" target="Qhc68EfF8Lrv2Dlz5Eg7-15">
          <mxGeometry relative="1" as="geometry" />
        </mxCell>
        <mxCell id="Qhc68EfF8Lrv2Dlz5Eg7-20" style="edgeStyle=none;rounded=0;orthogonalLoop=1;jettySize=auto;html=1;endArrow=none;endFill=0;" edge="1" parent="Qhc68EfF8Lrv2Dlz5Eg7-2" source="Qhc68EfF8Lrv2Dlz5Eg7-9" target="Qhc68EfF8Lrv2Dlz5Eg7-11">
          <mxGeometry relative="1" as="geometry" />
        </mxCell>
        <mxCell id="Qhc68EfF8Lrv2Dlz5Eg7-21" style="edgeStyle=none;rounded=0;orthogonalLoop=1;jettySize=auto;html=1;endArrow=none;endFill=0;" edge="1" parent="Qhc68EfF8Lrv2Dlz5Eg7-2" source="Qhc68EfF8Lrv2Dlz5Eg7-9" target="Qhc68EfF8Lrv2Dlz5Eg7-16">
          <mxGeometry relative="1" as="geometry" />
        </mxCell>
        <mxCell id="Qhc68EfF8Lrv2Dlz5Eg7-9" value="Se inntekt" style="ellipse;whiteSpace=wrap;html=1;" vertex="1" parent="Qhc68EfF8Lrv2Dlz5Eg7-2">
          <mxGeometry x="70" y="380" width="120" height="60" as="geometry" />
        </mxCell>
        <mxCell id="Qhc68EfF8Lrv2Dlz5Eg7-10" value="Se vannstand" style="ellipse;whiteSpace=wrap;html=1;" vertex="1" parent="Qhc68EfF8Lrv2Dlz5Eg7-2">
          <mxGeometry x="70" y="220" width="120" height="60" as="geometry" />
        </mxCell>
        <mxCell id="Qhc68EfF8Lrv2Dlz5Eg7-14" style="edgeStyle=none;rounded=0;orthogonalLoop=1;jettySize=auto;html=1;endArrow=none;endFill=0;" edge="1" parent="Qhc68EfF8Lrv2Dlz5Eg7-2" source="Qhc68EfF8Lrv2Dlz5Eg7-11" target="Qhc68EfF8Lrv2Dlz5Eg7-12">
          <mxGeometry relative="1" as="geometry" />
        </mxCell>
        <mxCell id="Qhc68EfF8Lrv2Dlz5Eg7-11" value="Se strømpris" style="ellipse;whiteSpace=wrap;html=1;" vertex="1" parent="Qhc68EfF8Lrv2Dlz5Eg7-2">
          <mxGeometry x="270" y="340" width="120" height="60" as="geometry" />
        </mxCell>
        <mxCell id="Qhc68EfF8Lrv2Dlz5Eg7-12" value="Hent strømpris" style="ellipse;whiteSpace=wrap;html=1;" vertex="1" parent="Qhc68EfF8Lrv2Dlz5Eg7-2">
          <mxGeometry x="270" y="260" width="120" height="60" as="geometry" />
        </mxCell>
        <mxCell id="Qhc68EfF8Lrv2Dlz5Eg7-15" value="Se vanninførsel" style="ellipse;whiteSpace=wrap;html=1;" vertex="1" parent="Qhc68EfF8Lrv2Dlz5Eg7-2">
          <mxGeometry x="70" y="300" width="120" height="60" as="geometry" />
        </mxCell>
        <mxCell id="Qhc68EfF8Lrv2Dlz5Eg7-16" value="Se solpanel effekt" style="ellipse;whiteSpace=wrap;html=1;" vertex="1" parent="Qhc68EfF8Lrv2Dlz5Eg7-2">
          <mxGeometry x="270" y="460" width="120" height="60" as="geometry" />
        </mxCell>
        <mxCell id="Qhc68EfF8Lrv2Dlz5Eg7-22" value="Se formue" style="ellipse;whiteSpace=wrap;html=1;" vertex="1" parent="Qhc68EfF8Lrv2Dlz5Eg7-2">
          <mxGeometry x="70" y="60" width="120" height="60" as="geometry" />
        </mxCell>
        <mxCell id="Qhc68EfF8Lrv2Dlz5Eg7-25" value="Se værmelding" style="ellipse;whiteSpace=wrap;html=1;" vertex="1" parent="Qhc68EfF8Lrv2Dlz5Eg7-2">
          <mxGeometry x="70" y="540" width="120" height="60" as="geometry" />
        </mxCell>
        <mxCell id="Qhc68EfF8Lrv2Dlz5Eg7-27" style="edgeStyle=none;rounded=0;orthogonalLoop=1;jettySize=auto;html=1;endArrow=none;endFill=0;" edge="1" parent="1" source="Qhc68EfF8Lrv2Dlz5Eg7-3" target="Qhc68EfF8Lrv2Dlz5Eg7-22">
          <mxGeometry relative="1" as="geometry" />
        </mxCell>
        <mxCell id="Qhc68EfF8Lrv2Dlz5Eg7-28" style="edgeStyle=none;rounded=0;orthogonalLoop=1;jettySize=auto;html=1;endArrow=none;endFill=0;" edge="1" parent="1" source="Qhc68EfF8Lrv2Dlz5Eg7-3" target="Qhc68EfF8Lrv2Dlz5Eg7-8">
          <mxGeometry relative="1" as="geometry" />
        </mxCell>
        <mxCell id="Qhc68EfF8Lrv2Dlz5Eg7-29" style="edgeStyle=none;rounded=0;orthogonalLoop=1;jettySize=auto;html=1;endArrow=none;endFill=0;" edge="1" parent="1" source="Qhc68EfF8Lrv2Dlz5Eg7-3" target="Qhc68EfF8Lrv2Dlz5Eg7-10">
          <mxGeometry relative="1" as="geometry" />
        </mxCell>
        <mxCell id="Qhc68EfF8Lrv2Dlz5Eg7-30" style="edgeStyle=none;rounded=0;orthogonalLoop=1;jettySize=auto;html=1;endArrow=none;endFill=0;" edge="1" parent="1" source="Qhc68EfF8Lrv2Dlz5Eg7-3" target="Qhc68EfF8Lrv2Dlz5Eg7-15">
          <mxGeometry relative="1" as="geometry" />
        </mxCell>
        <mxCell id="Qhc68EfF8Lrv2Dlz5Eg7-31" style="edgeStyle=none;rounded=0;orthogonalLoop=1;jettySize=auto;html=1;endArrow=none;endFill=0;" edge="1" parent="1" source="Qhc68EfF8Lrv2Dlz5Eg7-3" target="Qhc68EfF8Lrv2Dlz5Eg7-9">
          <mxGeometry relative="1" as="geometry" />
        </mxCell>
        <mxCell id="Qhc68EfF8Lrv2Dlz5Eg7-32" style="edgeStyle=none;rounded=0;orthogonalLoop=1;jettySize=auto;html=1;endArrow=none;endFill=0;" edge="1" parent="1" source="Qhc68EfF8Lrv2Dlz5Eg7-3" target="Qhc68EfF8Lrv2Dlz5Eg7-25">
          <mxGeometry relative="1" as="geometry" />
        </mxCell>
        <mxCell id="Qhc68EfF8Lrv2Dlz5Eg7-3" value="Bruker" style="shape=umlActor;verticalLabelPosition=bottom;verticalAlign=top;html=1;outlineConnect=0;" vertex="1" parent="1">
          <mxGeometry x="70" y="384" width="30" height="60" as="geometry" />
        </mxCell>
        <mxCell id="Qhc68EfF8Lrv2Dlz5Eg7-5" value="Yr" style="shape=umlActor;verticalLabelPosition=bottom;verticalAlign=top;html=1;outlineConnect=0;" vertex="1" parent="1">
          <mxGeometry x="710" y="650" width="30" height="60" as="geometry" />
        </mxCell>
        <mxCell id="Qhc68EfF8Lrv2Dlz5Eg7-6" value="SolvannAPI" style="shape=umlActor;verticalLabelPosition=bottom;verticalAlign=top;html=1;outlineConnect=0;" vertex="1" parent="1">
          <mxGeometry x="710" y="290" width="30" height="60" as="geometry" />
        </mxCell>
        <mxCell id="Qhc68EfF8Lrv2Dlz5Eg7-13" style="rounded=0;orthogonalLoop=1;jettySize=auto;html=1;endArrow=none;endFill=0;" edge="1" parent="1" source="Qhc68EfF8Lrv2Dlz5Eg7-12" target="Qhc68EfF8Lrv2Dlz5Eg7-6">
          <mxGeometry relative="1" as="geometry" />
        </mxCell>
        <mxCell id="Qhc68EfF8Lrv2Dlz5Eg7-17" style="edgeStyle=none;rounded=0;orthogonalLoop=1;jettySize=auto;html=1;endArrow=none;endFill=0;" edge="1" parent="1" source="Qhc68EfF8Lrv2Dlz5Eg7-10" target="Qhc68EfF8Lrv2Dlz5Eg7-6">
          <mxGeometry relative="1" as="geometry" />
        </mxCell>
        <mxCell id="Qhc68EfF8Lrv2Dlz5Eg7-18" style="edgeStyle=none;rounded=0;orthogonalLoop=1;jettySize=auto;html=1;endArrow=none;endFill=0;" edge="1" parent="1" source="Qhc68EfF8Lrv2Dlz5Eg7-8" target="Qhc68EfF8Lrv2Dlz5Eg7-6">
          <mxGeometry relative="1" as="geometry" />
        </mxCell>
        <mxCell id="Qhc68EfF8Lrv2Dlz5Eg7-23" style="edgeStyle=none;rounded=0;orthogonalLoop=1;jettySize=auto;html=1;endArrow=none;endFill=0;" edge="1" parent="1" source="Qhc68EfF8Lrv2Dlz5Eg7-22" target="Qhc68EfF8Lrv2Dlz5Eg7-6">
          <mxGeometry relative="1" as="geometry" />
        </mxCell>
        <mxCell id="Qhc68EfF8Lrv2Dlz5Eg7-24" style="edgeStyle=none;rounded=0;orthogonalLoop=1;jettySize=auto;html=1;endArrow=none;endFill=0;" edge="1" parent="1" source="Qhc68EfF8Lrv2Dlz5Eg7-16" target="Qhc68EfF8Lrv2Dlz5Eg7-6">
          <mxGeometry relative="1" as="geometry" />
        </mxCell>
        <mxCell id="Qhc68EfF8Lrv2Dlz5Eg7-26" style="edgeStyle=none;rounded=0;orthogonalLoop=1;jettySize=auto;html=1;endArrow=none;endFill=0;" edge="1" parent="1" source="Qhc68EfF8Lrv2Dlz5Eg7-25" target="Qhc68EfF8Lrv2Dlz5Eg7-5">
          <mxGeometry relative="1" as="geometry" />
        </mxCell>
      </root>
    </mxGraphModel>
  </diagram>
</mxfile>
